# AST/ASF file generated using VICON BodyLanguage
# -----------------------------------------------
:version 1.10
:name VICON
:units
  mass 1.0
  length 0.45
  angle deg
:documentation
   .ast/.asf automatically generated from VICON data using
   VICON BodyBuilder and BodyLanguage model FoxedUp or BRILLIANT.MOD
:root
   order TX TY TZ RX RY RZ
   axis XYZ
   position 0 0 0  
   orientation 0 0 0 
:bonedata
  begin
     id 1 
     name lhipjoint
     direction 0.711131 -0.61297 0.344326 
     length 2.29162 
     axis 0 0 0  XYZ
  end
  begin
     id 2 
     name lfemur
     direction 0.34202 -0.939693 0  
     length 6.71424  
     axis 0 0 20  XYZ
    dof rx ry rz
    limits (-160.0 20.0)
           (-70.0 70.0)
           (-60.0 70.0)
  end
  begin
     id 3 
     name ltibia
     direction 0.34202 -0.939693 0   
     length 6.7087   
     axis 0 0 20   XYZ
    dof rx
    limits (-10.0 170.0)
  end
  begin
     id 4 
     name lfoot
     direction 0.0230374 -0.0632947 0.997729   
     length 1.56743   
     axis -90 7.62852e-016 20   XYZ
    dof rx rz
    limits (-45.0 90.0)
           (-70.0 20.0)
  end
  begin
     id 5 
     name ltoes
     direction 1.53585e-011 -4.21885e-011 1   
     length 0.802914   
     axis -90 7.62852e-016 20   XYZ
    dof rx
    limits (-90.0 20.0)
  end
  begin
     id 6 
     name rhipjoint
     direction -0.733192 -0.592884 0.333043   
     length 2.36925  
     axis 0 0 0  XYZ 
  end
  begin
     id 7 
     name rfemur
     direction -0.34202 -0.939693 0   
     length 6.67027   
     axis 0 0 -20   XYZ
    dof rx ry rz
    limits (-160.0 20.0)
           (-70.0 70.0)
           (-70.0 60.0)
  end
  begin
     id 8 
     name rtibia
     direction -0.34202 -0.939693 0   
     length 6.6862   
     axis 0 0 -20   XYZ
    dof rx
    limits (-10.0 170.0)
 end
 begin
     id 9 
     name rfoot
     direction -0.0949739 -0.260939 0.960672   
     length 1.67698  
     axis -90 -7.62852e-016 -20   XYZ
    dof rx rz
    limits (-45.0 90.0)
           (-20.0 70.0)
  end
  begin
     id 10 
     name rtoes
     direction -1.5353e-011 -4.21868e-011 1   
     length 0.846298   
     axis -90 -7.62852e-016 -20   XYZ
    dof rx
    limits (-90.0 20.0)
  end
  begin
     id 11 
     name lowerback
     direction -0.0206828 0.999785 -0.00109866   
     length 2.04382   
     axis 0 0 0   XYZ
    dof rx ry rz
    limits (-20.0 45.0)
           (-30.0 30.0)
           (-30.0 30.0)
  end
  begin
     id 12 
     name upperback
     direction -0.0105003 0.999727 -0.0208904   
     length 2.04538   
     axis 0 0 0   XYZ
    dof rx ry rz
    limits (-20.0 45.0)
           (-30.0 30.0)
           (-30.0 30.0)
  end
  begin
     id 13 
     name thorax
     direction -0.000416255 0.999808 -0.0196023   
     length 2.0399   
     axis 0 0 0   XYZ
    dof rx ry rz
    limits (-20.0 45.0)
           (-30.0 30.0)
           (-30.0 30.0)
  end
  begin
     id 14 
     name lowerneck
     direction 0.0627861 0.989205 0.13241   
     length 1.46207   
     axis 0 0 0   XYZ
    dof rx ry rz
    limits (-20.0 45.0)
           (-30.0 30.0)
           (-30.0 30.0)
  end
  begin
     id 15 
     name upperneck
     direction 0.00627179 0.994526 0.104303   
     length 1.41419   
     axis 0 0 0   XYZ
    dof rx ry rz
    limits (-20.0 45.0)
           (-30.0 30.0)
           (-30.0 30.0)
  end
  begin
     id 16
     name head
     direction -0.00443838 0.999688 0.0245968  
     length 1.50718  
     axis 0 0 0   XYZ
    dof rx ry rz
    limits (-20.0 45.0)
           (-30.0 30.0)
           (-30.0 30.0)
  end
  begin
     id 17 
     name lclavicle
     direction 0.758742 0.650995 -0.0227258  
     length 2.86888  
     axis 0 0 0   XYZ
    dof ry rz
    limits (-20.0 10.0)
           (0.0 20.0)
  end
  begin
     id 18 
     name lhumerus
     direction 1 -4.48962e-011 1.06664e-027   
     length 4.65776   
     axis -180 -30 -90   XYZ
    dof rx ry rz
    limits (-60.0 90.0)
           (-90.0 90.0)
           (-90.0 90.0)
  end
  begin
     id 19
     name lradius
     direction 1 -4.48968e-011 1.40404e-026   
     length 3.55539   
     axis -180 -30 -90   XYZ
    dof rx
    limits (-10.0 170.0)
  end
  begin
     id 20
     name lwrist
     direction 1 -4.48976e-011 3.32647e-026   
     length 1.77769   
     axis -2.20186e-014 90 90   XYZ
    dof ry
    limits (-180.0 0.0)
 end
  begin
     id 21 
     name lhand
     direction 1 -4.48982e-011 6.65293e-026   
     length 0.707264   
     axis -4.24514e-014 90 90   XYZ
    dof rx rz
    limits (-90.0 90.0)
           (-45.0 45.0)
  end
  begin
     id 22 
     name lfingers
     direction 1 -4.48966e-011 1.33059e-025   
     length 0.570215   
     axis -8.49028e-014 90 90   XYZ
    dof rx
    limits (0.0 90.0)
  end
  begin
     id 23
     name lthumb
     direction 0.707107 -6.3493e-011 0.707107   
     length 0.818718   
     axis -90 45 2.85299e-015   XYZ
    dof rx rz
    limits (-45.0 45.0)
           (-45.0 45.0)
  end
  begin
     id 24 
     name rclavicle
     direction -0.870343 0.482028 -0.100759   
     length 3.2251  
     axis 0 0 0   XYZ 
    dof ry rz
    limits (-10.0 20.0)
           (-20.0 0.0)
  end
  begin
     id 25 
     name rhumerus
     direction -1 -4.48974e-011 -9.45849e-028  
     length 4.71925   
     axis -180 30 90   XYZ
    dof rx ry rz
    limits (-90.0 60.0)
           (-90.0 90.0)
           (-90.0 90.0)
  end
  begin
     id 26 
     name rradius
     direction -1 -4.48965e-011 1.17607e-026   
     length 3.5699   
     axis -180 30 90   XYZ
    dof rx
    limits (-10.0 170.0)
  end
  begin
     id 27 
     name rwrist
     direction -1 -4.48968e-011 3.32647e-026   
     length 1.78495   
     axis -2.20186e-014 -90 -90   XYZ
    dof ry
    limits (-180.0 0.0)
  end
  begin
     id 28
     name rhand
     direction -1 -4.48995e-011 6.65293e-026   
     length 0.507757   
     axis -4.24514e-014 -90 -90   XYZ
    dof rx rz
    limits (-90.0 90.0)
           (-45.0 45.0)
  end
  begin
     id 29
     name rfingers
     direction -1 -4.48864e-011 1.33059e-025   
     length 0.409367   
     axis -8.49028e-014 -90 -90   XYZ
    dof rx
    limits (0.0 90.0)
  end
  begin
     id 30
     name rthumb
     direction -0.707107 -6.3494e-011 0.707107   
     length 0.587771   
     axis -90 -45 -2.85299e-015   XYZ
    dof rx rz
    limits (-45.0 45.0)
           (-45.0 45.0)
  end
:hierarchy
  begin
    root lhipjoint rhipjoint lowerback
    lhipjoint lfemur
    lfemur ltibia
    ltibia lfoot
    lfoot ltoes
    rhipjoint rfemur
    rfemur rtibia
    rtibia rfoot
    rfoot rtoes
    lowerback upperback
    upperback thorax
    thorax lowerneck lclavicle rclavicle
    lowerneck upperneck
    upperneck head
    lclavicle lhumerus
    lhumerus lradius
    lradius lwrist
    lwrist lhand lthumb
    lhand lfingers
    rclavicle rhumerus
    rhumerus rradius
    rradius rwrist
    rwrist rhand rthumb
    rhand rfingers
  end

#!OML:ASF E:\Steps\Project 1\Capture day 1\Session 2\Subject.ASF
:FULLY-SPECIFIED
:DEGREES
51
root 16.5772 16.3538 21.5508 -154.616 -0.714261 177.553
lowerback -31.8352 -1.74438 -8.54971
upperback -1.57499 -0.0164471 -0.104874
thorax 14.7563 -0.906467 4.40487
lowerneck -5.77033 -2.85365 -1.19529
upperneck 10.3936 -4.42799 3.95266
head 4.62371 -2.1374 1.28822
rclavicle 4.91992e-015 2.24627e-014
rhumerus -35.5529 -19.8793 -77.7585
rradius 28.2855
rwrist -2.17981
rhand -11.6022 -443.739
rfingers 7.12502
rthumb -165.56 -66.7833
lclavicle 4.91992e-015 2.24627e-014
lhumerus -27.6853 7.85783 81.2137
lradius 15.7804
lwrist -9.09355
lhand -22.6599 -11.5712
lfingers 7.12502
lthumb 3.77153 18.3752
rfemur -23.649 5.64939 18.8445
rtibia 7.4387
rfoot -17.5474 -0.768025
rtoes -10.0212
lfemur -24.897 -8.9788 -22.2627
ltibia 9.33705
lfoot -7.56289 0.0347228
ltoes -50.3624
52
root 16.5803 16.3533 21.5538 -154.592 -0.697518 177.503
lowerback -31.7877 -1.77913 -8.59665
upperback -1.61269 -0.0593011 -0.0880835
thorax 14.696 -0.927368 4.43059
lowerneck -5.74291 -2.86899 -1.34909
upperneck 10.3078 -4.43936 4.06628
head 4.59594 -2.14347 1.3545
rclavicle 1.54058e-015 1.74931e-014
rhumerus -35.5893 -19.9896 -77.637
rradius 28.064
rwrist -2.01922
rhand -11.6053 -443.475
rfingers 7.12502
rthumb -165.563 -67.0473
lclavicle 1.54058e-015 1.74931e-014
lhumerus -27.8956 8.1002 81.1244
lradius 15.7069
lwrist -9.27219
lhand -22.4113 -11.3265
lfingers 7.12502
lthumb 4.01165 18.6155
rfemur -23.6972 5.6561 18.783
rtibia 7.43891
rfoot -17.4766 -0.796929
rtoes -9.40636
lfemur -24.9252 -9.09971 -22.2791
ltibia 9.31624
lfoot -7.59319 0.160004
ltoes -50.5369
53
root 16.5908 16.3517 21.5518 -154.658 -0.6141 177.603
lowerback -31.6561 -1.76559 -8.57593
upperback -1.66954 -0.0759362 -0.0400046
thorax 14.5753 -0.929548 4.46684
lowerneck -5.62692 -2.83079 -1.55568
upperneck 10.1761 -4.38215 4.26045
head 4.53574 -2.11624 1.46297
rclavicle 6.63444e-015 -6.55989e-015
rhumerus -35.7274 -20.2466 -77.4251
rradius 27.7868
rwrist -1.74378
rhand -11.6458 -443.097
rfingers 7.12502
rthumb -165.602 -67.422
lclavicle 6.63444e-015 -6.55989e-015
lhumerus -28.2709 8.18821 81.0328
lradius 15.8478
lwrist -9.22621
lhand -22.1607 -11.2753
lfingers 7.12502
lthumb 4.25357 18.662
rfemur -23.6489 6.07699 18.831
rtibia 7.40942
rfoot -17.4113 -1.07879
rtoes -8.84757
lfemur -24.8797 -8.97505 -22.1204
ltibia 9.34053
lfoot -7.62705 0.21939
ltoes -50.8367
54
root 16.597 16.3514 21.5504 -154.719 -0.616399 177.705
lowerback -31.563 -1.70182 -8.47688
upperback -1.68387 -0.0325488 -0.0644512
thorax 14.5138 -0.89971 4.40624
lowerneck -5.6555 -2.84219 -1.50197
upperneck 10.1802 -4.40652 4.28502
head 4.5431 -2.12496 1.45988
rclavicle 4.91992e-015 -5.56597e-015
rhumerus -35.8959 -20.7609 -77.203
rradius 27.5784
rwrist -1.20284
rhand -11.6027 -442.749
rfingers 7.12502
rthumb -165.56 -67.7729
lclavicle 4.91992e-015 -5.56597e-015
lhumerus -28.419 8.40607 80.8155
lradius 15.73
lwrist -9.5021
lhand -22.0487 -11.5866
lfingers 7.12502
lthumb 4.36177 18.3485
rfemur -23.5921 6.15901 18.9833
rtibia 7.41039
rfoot -17.4447 -1.02969
rtoes -9.04855
lfemur -24.8691 -8.81471 -21.9927
ltibia 9.45106
lfoot -7.66867 0.0932162
ltoes -50.6447
55
root 16.5969 16.3538 21.5502 -154.748 -0.633633 177.605
lowerback -31.551 -1.72556 -8.51577
upperback -1.65826 -0.0405231 -0.0994039
thorax 14.5385 -0.904963 4.38591
lowerneck -5.69901 -2.86959 -1.48387
upperneck 10.2191 -4.43881 4.21949
head 4.56435 -2.142 1.4318
rclavicle -6.95746e-016 1.66979e-014
rhumerus -35.9797 -21.0358 -77.032
rradius 27.4345
rwrist -0.735268
rhand -11.5236 -442.423
rfingers 7.12502
rthumb -165.484 -68.1045
lclavicle -6.95746e-016 1.66979e-014
lhumerus -28.4627 8.88991 80.5919
lradius 15.4432
lwrist -10.0716
lhand -22.0339 -11.9918
lfingers 7.12502
lthumb 4.37607 17.943
rfemur -23.5682 5.79651 18.964
rtibia 7.44935
rfoot -17.4689 -0.710593
rtoes -9.65371
lfemur -24.8329 -8.91004 -22.1109
ltibia 9.51674
lfoot -7.70334 0.0915333
ltoes -50.4307
56
root 16.6053 16.3524 21.5474 -154.956 -0.759744 177.895
lowerback -31.3669 -1.68083 -8.29038
upperback -1.62039 -0.0717886 0.00108964
thorax 14.5138 -0.898632 4.36811
lowerneck -5.74626 -2.92036 -1.38097
upperneck 10.2967 -4.50584 4.07821
head 4.59627 -2.1767 1.36026
rclavicle 9.19379e-015 -2.40529e-014
rhumerus -36.0765 -21.1733 -76.902
rradius 27.329
rwrist -0.582493
rhand -11.5271 -442.071
rfingers 7.12502
rthumb -165.487 -68.4561
lclavicle 9.19379e-015 -2.40529e-014
lhumerus -28.5388 9.40416 80.3523
lradius 15.1952
lwrist -10.7166
lhand -21.9758 -12.0853
lfingers 7.12502
lthumb 4.43209 17.8483
rfemur -23.2913 5.91505 19.3657
rtibia 7.3806
rfoot -17.3967 -0.875364
rtoes -10.0604
lfemur -24.6008 -9.02057 -21.6706
ltibia 9.50725
lfoot -7.69075 0.304944
ltoes -50.5038
57
root 16.6082 16.3512 21.5496 -154.908 -0.848715 177.985
lowerback -31.342 -1.69061 -8.20483
upperback -1.66881 -0.130013 0.0314285
thorax 14.4555 -0.918507 4.33138
lowerneck -5.72923 -2.83932 -1.33316
upperneck 10.2678 -4.40014 4.08505
head 4.5774 -2.12288 1.36058
rclavicle 1.61513e-015 5.96354e-016
rhumerus -36.149 -21.2714 -76.8284
rradius 27.2089
rwrist -0.560311
rhand -11.579 -441.767
rfingers 7.12502
rthumb -165.537 -68.757
lclavicle 1.61513e-015 5.96354e-016
lhumerus -28.6687 10.037 80.0184
lradius 14.9729
lwrist -11.367
lhand -21.8114 -11.9225
lfingers 7.12502
lthumb 4.59086 18.0078
rfemur -23.3282 5.82718 19.5258
rtibia 7.37321
rfoot -17.4286 -0.8652
rtoes -9.91974
lfemur -24.664 -9.04241 -21.5357
ltibia 9.49647
lfoot -7.65677 0.332159
ltoes -50.7967
58
root 16.6142 16.3502 21.5543 -154.793 -0.711077 178.107
lowerback -31.3707 -1.65169 -8.14997
upperback -1.73003 -0.116629 0.069037
thorax 14.3957 -0.910998 4.34694
lowerneck -5.71721 -2.75168 -1.33222
upperneck 10.2255 -4.28281 4.12191
head 4.55682 -2.06346 1.38023
rclavicle 1.54058e-015 -1.68967e-014
rhumerus -36.2023 -21.3013 -76.7733
rradius 27.0833
rwrist -0.454943
rhand -11.5852 -441.486
rfingers 7.12502
rthumb -165.543 -69.0376
lclavicle 1.54058e-015 -1.68967e-014
lhumerus -28.7903 10.5417 79.7555
lradius 14.7654
lwrist -11.8349
lhand -21.8302 -11.9441
lfingers 7.12502
lthumb 4.57278 17.9866
rfemur -23.5662 5.87885 19.6718
rtibia 7.5204
rfoot -17.5464 -0.76557
rtoes -10.0845
lfemur -24.8235 -8.88618 -21.4015
ltibia 9.50059
lfoot -7.64362 0.424638
ltoes -51.2226
59
root 16.619 16.3525 21.5528 -154.834 -0.855551 177.959
lowerback -31.3213 -1.76806 -8.31052
upperback -1.6989 -0.205971 0.0559622
thorax 14.4194 -0.959325 4.3835
lowerneck -5.78347 -2.78774 -1.26732
upperneck 10.3244 -4.33912 4.06418
head 4.60432 -2.09088 1.34465
rclavicle 4.44781e-015 -3.35946e-014
rhumerus -36.2423 -21.2577 -76.7775
rradius 27.0195
rwrist -0.491168
rhand -11.5869 -441.251
rfingers 7.12502
rthumb -165.545 -69.2724
lclavicle 4.44781e-015 -3.35946e-014
lhumerus -28.7975 10.7382 79.6551
lradius 14.4854
lwrist -11.9221
lhand -22.1924 -12.2087
lfingers 7.12502
lthumb 4.22295 17.7292
rfemur -23.4118 5.83184 19.5465
rtibia 7.39869
rfoot -17.5405 -0.950069
rtoes -10.0631
lfemur -24.7904 -8.90381 -21.5646
ltibia 9.57162
lfoot -7.65744 0.253862
ltoes -50.9521
60
root 16.6221 16.3526 21.552 -154.855 -0.846284 177.959
lowerback -31.3641 -1.76772 -8.29949
upperback -1.64679 -0.19306 0.0388561
thorax 14.4977 -0.954115 4.36439
lowerneck -5.87924 -2.81829 -1.21437
upperneck 10.3779 -4.39236 4.08679
head 4.64436 -2.1128 1.3385
rclavicle 1.16786e-015 4.17448e-015
rhumerus -36.2435 -21.1733 -76.8528
rradius 27.0386
rwrist -0.560895
rhand -11.5595 -441.04
rfingers 7.12502
rthumb -165.519 -69.4858
lclavicle 1.16786e-015 4.17448e-015
lhumerus -28.7704 10.7299 79.6331
lradius 14.2401
lwrist -11.6741
lhand -22.5416 -12.3353
lfingers 7.12502
lthumb 3.88582 17.609
rfemur -23.386 5.92029 19.5324
rtibia 7.38497
rfoot -17.5218 -0.909144
rtoes -9.46808
lfemur -24.7455 -8.90859 -21.5443
ltibia 9.55417
lfoot -7.66556 0.262436
ltoes -50.8429
61
root 16.6271 16.3511 21.5525 -154.851 -0.806834 177.987
lowerback -31.3934 -1.75835 -8.31621
upperback -1.62186 -0.169367 0.0520329
thorax 14.5368 -0.945927 4.39762
lowerneck -5.92963 -2.8096 -1.1977
upperneck 10.3471 -4.37827 4.0924
head 4.64259 -2.10335 1.33776
rclavicle 8.24956e-015 -2.66371e-014
rhumerus -36.2421 -21.2637 -76.8065
rradius 26.9837
rwrist -0.319917
rhand -11.4886 -440.751
rfingers 7.12502
rthumb -165.45 -69.7791
lclavicle 8.24956e-015 -2.66371e-014
lhumerus -28.8326 10.995 79.4938
lradius 14.1572
lwrist -12.0098
lhand -22.5404 -12.2482
lfingers 7.12502
lthumb 3.88698 17.6961
rfemur -23.4104 5.97423 19.5646
rtibia 7.39308
rfoot -17.5587 -0.818161
rtoes -9.33683
lfemur -24.7502 -8.97 -21.4622
ltibia 9.51178
lfoot -7.63887 0.340854
ltoes -50.8166
62
root 16.6307 16.3481 21.5532 -154.84 -0.776163 178.036
lowerback -31.3755 -1.7283 -8.3013
upperback -1.64086 -0.14316 0.0735874
thorax 14.5038 -0.932891 4.42408
lowerneck -5.95803 -2.81124 -1.15549
upperneck 10.4005 -4.38322 4.04501
head 4.66516 -2.10609 1.31327
rclavicle 4.91992e-015 -8.34896e-015
rhumerus -36.2987 -21.4293 -76.6655
rradius 26.8907
rwrist -0.160825
rhand -11.4997 -440.422
rfingers 7.12502
rthumb -165.461 -70.1079
lclavicle 4.91992e-015 -8.34896e-015
lhumerus -28.9631 11.7068 79.1632
lradius 14.1525
lwrist -13.2451
lhand -22.202 -12.1038
lfingers 7.12502
lthumb 4.2137 17.8343
rfemur -23.458 5.92771 19.6556
rtibia 7.43171
rfoot -17.5408 -0.842042
rtoes -9.50825
lfemur -24.7744 -9.13121 -21.3341
ltibia 9.46946
lfoot -7.58287 0.496916
ltoes -50.7008
63
root 16.6325 16.3471 21.5532 -154.845 -0.744253 178.053
lowerback -31.3501 -1.69692 -8.26661
upperback -1.66129 -0.119175 0.0631673
thorax 14.466 -0.918821 4.40381
lowerneck -5.96531 -2.83941 -1.099
upperneck 10.4648 -4.43013 4.01241
head 4.68883 -2.12927 1.28885
rclavicle -1.28962e-014 1.76918e-014
rhumerus -36.4279 -21.4138 -76.6164
rradius 26.9361
rwrist -0.189546
rhand -11.5174 -440.17
rfingers 7.12502
rthumb -165.478 -70.3584
lclavicle -1.28962e-014 1.76918e-014
lhumerus -29.0781 12.3105 78.8419
lradius 14.1233
lwrist -14.3166
lhand -21.9221 -12.1551
lfingers 7.12502
lthumb 4.48398 17.7775
rfemur -23.4212 5.87929 19.6934
rtibia 7.36081
rfoot -17.4588 -0.881618
rtoes -9.79277
lfemur -24.7488 -9.26218 -21.2776
ltibia 9.42938
lfoot -7.59638 0.665054
ltoes -50.4077
64
root 16.6336 16.3479 21.5544 -154.833 -0.680184 177.994
lowerback -31.3587 -1.66115 -8.25731
upperback -1.67035 -0.0690081 -0.0115057
thorax 14.4512 -0.89501 4.33654
lowerneck -5.95673 -2.86608 -1.03603
upperneck 10.5082 -4.47348 3.97601
head 4.70112 -2.15073 1.26236
rclavicle -1.49089e-016 -1.2921e-014
rhumerus -36.5193 -21.5093 -76.6261
rradius 26.9358
rwrist -0.0871896
rhand -11.5035 -439.936
rfingers 7.12502
rthumb -165.465 -70.5934
lclavicle -1.49089e-016 -1.2921e-014
lhumerus -29.1231 12.4139 78.6627
lradius 14.077
lwrist -14.7319
lhand -21.7958 -12.1682
lfingers 7.12502
lthumb 4.60598 17.7617
rfemur -23.4017 5.80112 19.627
rtibia 7.27326
rfoot -17.4072 -0.796441
rtoes -10.2739
lfemur -24.7502 -9.24903 -21.3631
ltibia 9.42898
lfoot -7.61096 0.719741
ltoes -50.6545
65
root 16.6348 16.3491 21.5571 -154.796 -0.620972 177.891
lowerback -31.3688 -1.65693 -8.31806
upperback -1.68385 -0.038433 -0.072901
thorax 14.4334 -0.884899 4.31318
lowerneck -6.00703 -2.87504 -0.930856
upperneck 10.5804 -4.48744 3.86148
head 4.73107 -2.15806 1.20263
rclavicle 1.33931e-014 4.37326e-015
rhumerus -36.5366 -21.6036 -76.6106
rradius 26.8907
rwrist 0.0316673
rhand -11.495 -439.68
rfingers 7.12502
rthumb -165.456 -70.8502
lclavicle 1.33931e-014 4.37326e-015
lhumerus -29.1537 12.6381 78.4877
lradius 13.9844
lwrist -15.2638
lhand -21.6507 -11.8348
lfingers 7.12502
lthumb 4.74609 18.0921
rfemur -23.5283 5.81873 19.4825
rtibia 7.41054
rfoot -17.4847 -0.839282
rtoes -10.4245
lfemur -24.8099 -9.27163 -21.4903
ltibia 9.45955
lfoot -7.60597 0.765698
ltoes -50.8252
